0
SECTION
2
HEADER
9
$INSUNITS
70
4
0
ENDSEC
0
SECTION
2
TABLES
0
TABLE
2
LTYPE
70
3
0
LTYPE
2
CONTINUOUS
70
0
3
Solid
72
65
73
0
40
0
0
LTYPE
2
HIDDEN
70
0
3
Hidden
72
65
73
2
40
6
49
3
74
0
49
-3
74
0
0
LTYPE
2
CENTER
70
0
3
Center
72
65
73
4
40
8
49
5
74
0
49
-1
74
0
49
1
74
0
49
-1
74
0
0
ENDTAB
0
TABLE
2
LAYER
70
5
0
LAYER
2
Object Lines
70
0
62
7
6
CONTINUOUS
370
35
0
LAYER
2
Hidden Lines
70
0
62
1
6
HIDDEN
370
18
0
LAYER
2
Construction Lines
70
0
62
8
6
CONTINUOUS
370
9
0
LAYER
2
Centre Lines
70
0
62
3
6
CENTER
370
13
0
LAYER
2
Dimensions
70
0
62
5
6
CONTINUOUS
370
13
0
ENDTAB
0
ENDSEC
0
SECTION
2
ENTITIES
0
LINE
8
Construction Lines
10
40.000000
20
90.000000
30
0
11
170.000000
21
90.000000
31
0
0
TEXT
8
Construction Lines
10
42.000000
20
93.000000
30
0
40
3
1
X-Y
0
LINE
8
Construction Lines
10
120.000000
20
90.000000
30
0
11
120.000000
21
42.500000
31
0
0
LINE
8
Construction Lines
10
120.000000
20
90.000000
30
0
11
120.000000
21
17.500000
31
0
0
LINE
8
Construction Lines
10
130.825318
20
108.750000
30
0
11
130.825318
21
5.000000
31
0
0
LINE
8
Construction Lines
10
141.650635
20
127.500000
30
0
11
141.650635
21
17.500000
31
0
0
LINE
8
Construction Lines
10
141.650635
20
127.500000
30
0
11
141.650635
21
42.500000
31
0
0
LINE
8
Construction Lines
10
130.825318
20
108.750000
30
0
11
130.825318
21
55.000000
31
0
0
LINE
8
Construction Lines
10
87.524047
20
133.750000
30
0
11
87.524047
21
30.000000
31
0
0
LINE
8
Hidden Lines
10
120.000000
20
90.000000
30
0
11
120.000000
21
90.000000
31
0
0
LINE
8
Hidden Lines
10
141.650635
20
127.500000
30
0
11
141.650635
21
127.500000
31
0
0
LINE
8
Hidden Lines
10
141.650635
20
127.500000
30
0
11
130.825318
21
108.750000
31
0
0
LINE
8
Hidden Lines
10
130.825318
20
108.750000
30
0
11
120.000000
21
90.000000
31
0
0
LINE
8
Hidden Lines
10
120.000000
20
90.000000
30
0
11
87.524047
21
133.750000
31
0
0
LINE
8
Hidden Lines
10
141.650635
20
127.500000
30
0
11
87.524047
21
133.750000
31
0
0
LINE
8
Hidden Lines
10
130.825318
20
108.750000
30
0
11
87.524047
21
133.750000
31
0
0
LINE
8
Object Lines
10
120.000000
20
90.000000
30
0
11
130.825318
21
108.750000
31
0
0
LINE
8
Object Lines
10
130.825318
20
108.750000
30
0
11
141.650635
21
127.500000
31
0
0
LINE
8
Object Lines
10
120.000000
20
90.000000
30
0
11
87.524047
21
133.750000
31
0
0
LINE
8
Object Lines
10
130.825318
20
108.750000
30
0
11
87.524047
21
133.750000
31
0
0
LINE
8
Object Lines
10
141.650635
20
127.500000
30
0
11
87.524047
21
133.750000
31
0
0
LINE
8
Hidden Lines
10
120.000000
20
42.500000
30
0
11
120.000000
21
17.500000
31
0
0
LINE
8
Hidden Lines
10
120.000000
20
17.500000
30
0
11
130.825318
21
5.000000
31
0
0
LINE
8
Hidden Lines
10
130.825318
20
55.000000
30
0
11
120.000000
21
42.500000
31
0
0
LINE
8
Hidden Lines
10
120.000000
20
42.500000
30
0
11
87.524047
21
30.000000
31
0
0
LINE
8
Hidden Lines
10
120.000000
20
17.500000
30
0
11
87.524047
21
30.000000
31
0
0
LINE
8
Object Lines
10
130.825318
20
5.000000
30
0
11
141.650635
21
17.500000
31
0
0
LINE
8
Object Lines
10
141.650635
20
17.500000
30
0
11
141.650635
21
42.500000
31
0
0
LINE
8
Object Lines
10
141.650635
20
42.500000
30
0
11
130.825318
21
55.000000
31
0
0
LINE
8
Object Lines
10
130.825318
20
5.000000
30
0
11
87.524047
21
30.000000
31
0
0
LINE
8
Object Lines
10
141.650635
20
17.500000
30
0
11
87.524047
21
30.000000
31
0
0
LINE
8
Object Lines
10
141.650635
20
42.500000
30
0
11
87.524047
21
30.000000
31
0
0
LINE
8
Object Lines
10
130.825318
20
55.000000
30
0
11
87.524047
21
30.000000
31
0
0
LINE
8
Centre Lines
10
130.825318
20
108.750000
30
0
11
87.524047
21
133.750000
31
0
0
LINE
8
Centre Lines
10
130.825318
20
30.000000
30
0
11
87.524047
21
30.000000
31
0
0
TEXT
8
Dimensions
10
121.000000
20
91.000000
30
0
40
2.5
1
a'
0
TEXT
8
Dimensions
10
121.000000
20
43.500000
30
0
40
2.5
1
a
0
TEXT
8
Dimensions
10
121.000000
20
91.000000
30
0
40
2.5
1
b'
0
TEXT
8
Dimensions
10
121.000000
20
18.500000
30
0
40
2.5
1
b
0
TEXT
8
Dimensions
10
131.825318
20
109.750000
30
0
40
2.5
1
c'
0
TEXT
8
Dimensions
10
131.825318
20
6.000000
30
0
40
2.5
1
c
0
TEXT
8
Dimensions
10
142.650635
20
128.500000
30
0
40
2.5
1
d'
0
TEXT
8
Dimensions
10
142.650635
20
18.500000
30
0
40
2.5
1
d
0
TEXT
8
Dimensions
10
142.650635
20
128.500000
30
0
40
2.5
1
e'
0
TEXT
8
Dimensions
10
142.650635
20
43.500000
30
0
40
2.5
1
e
0
TEXT
8
Dimensions
10
131.825318
20
109.750000
30
0
40
2.5
1
f'
0
TEXT
8
Dimensions
10
131.825318
20
56.000000
30
0
40
2.5
1
f
0
TEXT
8
Dimensions
10
88.524047
20
134.750000
30
0
40
2.5
1
O'
0
TEXT
8
Dimensions
10
88.524047
20
31.000000
30
0
40
2.5
1
O
0
TEXT
8
Dimensions
10
90.000000
20
125.000000
30
0
40
4
1
FINAL FRONT VIEW
0
TEXT
8
Dimensions
10
90.000000
20
-5.000000
30
0
40
4
1
FINAL TOP VIEW
0
LINE
8
Dimensions
10
120.000000
20
42.500000
30
0
11
120.000000
21
17.500000
31
0
0
TEXT
8
Dimensions
10
124.000000
20
38.500000
30
0
40
3
1
Base side = 25 mm
0
LINE
8
Dimensions
10
130.825318
20
108.750000
30
0
11
87.524047
21
133.750000
31
0
0
TEXT
8
Dimensions
10
109.174682
20
125.250000
30
0
40
3
1
Axis = 50 mm
0
LINE
8
Dimensions
10
130.825318
20
108.750000
30
0
11
158.825318
21
108.750000
31
0
0
LINE
8
Dimensions
10
130.825318
20
108.750000
30
0
11
106.576606
21
122.750000
31
0
0
TEXT
8
Dimensions
10
110.825318
20
116.750000
30
0
40
3
1
30° to H.P.
0
ENDSEC
0
EOF
